<svg xmlns="http://www.w3.org/2000/svg" xmlns:xlink="http://www.w3.org/1999/xlink" width="526" zoomAndPan="magnify" viewBox="0 0 394.5 196.499994" height="262" preserveAspectRatio="xMidYMid meet" version="1.0"><defs><g/><clipPath id="7f2f017024"><path d="M 24 0.570312 L 84 0.570312 L 84 110 L 24 110 Z M 24 0.570312 " clip-rule="nonzero"/></clipPath></defs><path fill="#ffffff" d="M 28.753906 76.453125 C 28.753906 76.453125 26.234375 90.96875 53.625 91.265625 C 55.957031 91.292969 58.070312 92.695312 58.960938 94.851562 C 59.65625 96.535156 59.527344 98.425781 58.605469 100 C 56.503906 103.597656 51.964844 110.351562 55.515625 117.074219 C 58.441406 122.605469 65.25 124.527344 70.824219 123.3125 C 70.824219 123.3125 59.878906 107.933594 72.824219 82.578125 C 85.765625 57.222656 23.761719 57.609375 13.207031 15.394531 C 13.207031 15.394531 0.292969 52.296875 56.578125 70.527344 C 56.578125 70.527344 34.941406 70.8125 16.441406 49.03125 C 16.441406 49.03125 11.824219 72.308594 52.792969 81.023438 C 52.792969 81.023438 38.652344 81.945312 28.753906 76.453125 " fill-opacity="1" fill-rule="nonzero"/><g clip-path="url(#7f2f017024)"><path fill="#ffffff" d="M 42.679688 47.234375 C 46.605469 49.667969 50.570312 51.84375 54.308594 53.890625 C 68.730469 61.800781 82.351562 69.269531 74.992188 83.683594 C 69.660156 94.128906 68.546875 102.695312 68.992188 109.0625 C 69.851562 101.914062 72.769531 92.914062 80.144531 82.851562 C 98.398438 57.945312 31.933594 47.609375 27.945312 0.574219 C 27.945312 0.574219 26.597656 3.058594 25.582031 7.253906 C 21.8125 22.796875 29.082031 38.808594 42.679688 47.234375 " fill-opacity="1" fill-rule="nonzero"/></g><path fill="#ffffff" d="M 133.136719 170.632812 C 126.25 157.394531 108.847656 167.722656 102.238281 151.847656 C 102.027344 151.34375 101.828125 150.820312 101.628906 150.292969 C 101.394531 149.660156 100.753906 149.273438 100.085938 149.359375 L 94.863281 150.019531 C 93.8125 150.15625 92.757812 149.515625 92.519531 148.484375 C 92.25 147.289062 93.0625 146.15625 94.242188 146.011719 L 98.261719 145.5 C 99.140625 145.390625 99.722656 144.523438 99.484375 143.671875 C 99.453125 143.5625 99.421875 143.453125 99.394531 143.347656 C 99.199219 142.652344 98.527344 142.195312 97.808594 142.289062 L 92.136719 143.003906 C 91.085938 143.140625 90.027344 142.503906 89.792969 141.464844 C 89.523438 140.277344 90.335938 139.144531 91.515625 138.992188 L 96.4375 138.371094 C 97.296875 138.261719 97.871094 137.433594 97.667969 136.589844 C 97.667969 136.582031 97.664062 136.570312 97.660156 136.558594 C 97.488281 135.835938 96.804688 135.363281 96.066406 135.453125 L 89.546875 136.277344 C 88.496094 136.410156 87.441406 135.777344 87.203125 134.742188 C 86.933594 133.550781 87.746094 132.417969 88.921875 132.265625 L 94.816406 131.523438 C 95.675781 131.414062 96.253906 130.585938 96.054688 129.742188 C 96.015625 129.597656 95.984375 129.453125 95.949219 129.308594 C 95.773438 128.589844 95.085938 128.113281 94.351562 128.210938 L 86.40625 129.214844 C 85.351562 129.347656 84.300781 128.710938 84.0625 127.675781 C 83.789062 126.488281 84.601562 125.355469 85.78125 125.203125 L 92.941406 124.300781 C 93.832031 124.1875 94.40625 123.300781 94.152344 122.441406 C 92.773438 117.664062 91.160156 113.527344 88.957031 110.792969 C 87.09375 108.480469 83.824219 107.917969 81.25 109.398438 C 78.441406 111.019531 73.964844 113.082031 69.515625 113.035156 C 70.5625 118.527344 72.613281 121.625 72.8125 121.910156 L 74.941406 124.90625 L 71.34375 125.691406 C 71.164062 125.730469 70.972656 125.753906 70.789062 125.785156 C 70.472656 125.84375 70.160156 125.910156 69.832031 125.949219 C 69.347656 126.011719 68.84375 126.023438 68.34375 126.046875 C 68.347656 126.042969 68.351562 126.042969 68.355469 126.046875 C 62.816406 126.296875 56.496094 124.136719 53.363281 118.214844 C 49.40625 110.71875 53.746094 103.417969 56.078125 99.496094 L 56.402344 98.941406 C 56.035156 97.457031 55.113281 96.15625 53.84375 95.289062 C 51.605469 93.765625 48.640625 93.800781 46.46875 95.425781 C 41.347656 99.25 32.730469 106.605469 32.4375 112.925781 C 38.851562 124.902344 50.992188 127.460938 68.050781 153.109375 C 86.988281 181.582031 118.082031 180.101562 118.082031 180.101562 C 77.992188 188.039062 66.03125 150.09375 48.628906 136.960938 C 36.699219 127.960938 32.078125 119.765625 30.347656 115.5 C 27.382812 118.878906 23.730469 126.824219 38.617188 138.632812 C 58.84375 154.683594 66.242188 180.019531 87.765625 187.71875 C 109.289062 195.425781 140.027344 183.867188 133.136719 170.632812 " fill-opacity="1" fill-rule="nonzero"/><g fill="#ffffff" fill-opacity="1"><g transform="translate(159.687859, 84.984633)"><g><path d="M 40.8125 0 L 34 0 L 34.875 -11.359375 L 35.34375 -26.078125 L 34.8125 -26.078125 L 23.921875 -3.953125 L 17.9375 -3.953125 L 13.28125 -26.078125 L 12.6875 -26.078125 L 9.609375 -12.046875 L 7.328125 0 L 0.875 0 L 9.25 -37.4375 L 18.046875 -37.4375 L 18.859375 -31.90625 L 22.359375 -13.921875 L 22.875 -13.921875 L 31.203125 -31.96875 L 33.46875 -37.4375 L 42.203125 -37.4375 Z M 40.8125 0 "/></g></g></g><g fill="#ffffff" fill-opacity="1"><g transform="translate(204.862332, 84.984633)"><g><path d="M 21.484375 -37.953125 C 26.097656 -37.953125 29.675781 -36.625 32.21875 -33.96875 C 34.757812 -31.3125 36.03125 -27.441406 36.03125 -22.359375 C 36.03125 -17.773438 35.273438 -13.753906 33.765625 -10.296875 C 32.253906 -6.847656 30.039062 -4.171875 27.125 -2.265625 C 24.21875 -0.367188 20.726562 0.578125 16.65625 0.578125 C 12.070312 0.578125 8.507812 -0.785156 5.96875 -3.515625 C 3.425781 -6.253906 2.15625 -10.1875 2.15625 -15.3125 C 2.15625 -19.894531 2.898438 -23.890625 4.390625 -27.296875 C 5.890625 -30.710938 8.082031 -33.34375 10.96875 -35.1875 C 13.863281 -37.03125 17.367188 -37.953125 21.484375 -37.953125 Z M 20.546875 -31.734375 C 17.054688 -31.734375 14.445312 -30.441406 12.71875 -27.859375 C 10.988281 -25.273438 10.125 -21.148438 10.125 -15.484375 C 10.125 -11.953125 10.695312 -9.378906 11.84375 -7.765625 C 12.988281 -6.160156 14.84375 -5.359375 17.40625 -5.359375 C 20.894531 -5.359375 23.515625 -6.65625 25.265625 -9.25 C 27.015625 -11.851562 27.890625 -16.007812 27.890625 -21.71875 C 27.890625 -25.25 27.316406 -27.800781 26.171875 -29.375 C 25.023438 -30.945312 23.148438 -31.734375 20.546875 -31.734375 Z M 20.546875 -31.734375 "/></g></g></g><g fill="#ffffff" fill-opacity="1"><g transform="translate(241.595698, 84.984633)"><g><path d="M 21.71875 -37.671875 C 26.445312 -37.671875 30.101562 -36.398438 32.6875 -33.859375 C 35.269531 -31.316406 36.5625 -27.710938 36.5625 -23.046875 C 36.5625 -15.710938 34.773438 -9.96875 31.203125 -5.8125 C 27.628906 -1.664062 22.546875 0.40625 15.953125 0.40625 C 14.128906 0.40625 11.9375 0.363281 9.375 0.28125 C 6.8125 0.207031 4.640625 0.113281 2.859375 0 L 4.65625 -11.171875 L 7.515625 -37.4375 Z M 17.640625 -5.53125 C 21.097656 -5.53125 23.765625 -6.878906 25.640625 -9.578125 C 27.523438 -12.273438 28.46875 -16.359375 28.46875 -21.828125 C 28.46875 -25.171875 27.835938 -27.625 26.578125 -29.1875 C 25.316406 -30.757812 23.382812 -31.546875 20.78125 -31.546875 C 19.269531 -31.546875 17.15625 -31.472656 14.4375 -31.328125 L 11.640625 -11.875 L 11.125 -6 C 12.164062 -5.882812 13.316406 -5.773438 14.578125 -5.671875 C 15.835938 -5.578125 16.859375 -5.53125 17.640625 -5.53125 Z M 17.640625 -5.53125 "/></g></g></g><g fill="#ffffff" fill-opacity="1"><g transform="translate(278.911206, 84.984633)"><g><path d="M 31.375 0 L 23.640625 0 L 23.28125 -4.828125 L 22.765625 -8.5 L 15.71875 -8.609375 L 9.484375 -8.5 L 8.09375 -5.234375 L 6.40625 0 L -1.171875 0 L 15.78125 -37.4375 L 24.921875 -37.4375 Z M 21.890625 -14.4375 L 19.5625 -30.21875 L 19.03125 -30.21875 L 12.171875 -14.5 L 16.9375 -14.375 Z M 21.890625 -14.4375 "/></g></g></g><g fill="#ffffff" fill-opacity="1"><g transform="translate(138.740487, 127.796744)"><g><path d="M 6.109375 -14.796875 L 6.53125 -14.796875 L 12 0 L 10.359375 0 L 9 -3.765625 L 3.5625 -3.765625 L 2.203125 0 L 0.640625 0 Z M 8.515625 -5.171875 L 6.28125 -11.390625 L 4.046875 -5.171875 Z M 8.515625 -5.171875 "/></g></g></g><g fill="#ffffff" fill-opacity="1"><g transform="translate(153.106156, 127.796744)"><g><path d="M 4.828125 -5.578125 L 0.421875 -14.359375 L 2.125 -14.359375 L 5.6875 -7.25 L 9.296875 -14.359375 L 10.875 -14.359375 L 6.328125 -5.578125 L 6.328125 0 L 4.828125 0 Z M 4.828125 -5.578125 "/></g></g></g><g fill="#ffffff" fill-opacity="1"><g transform="translate(166.121119, 127.796744)"><g><path d="M 6.109375 -14.796875 L 6.53125 -14.796875 L 12 0 L 10.359375 0 L 9 -3.765625 L 3.5625 -3.765625 L 2.203125 0 L 0.640625 0 Z M 8.515625 -5.171875 L 6.28125 -11.390625 L 4.046875 -5.171875 Z M 8.515625 -5.171875 "/></g></g></g><g fill="#ffffff" fill-opacity="1"><g transform="translate(180.486787, 127.796744)"><g><path d="M 1.921875 -14.359375 L 3.4375 -14.359375 L 3.4375 -7.765625 L 9.296875 -14.359375 L 11.171875 -14.359375 L 5.03125 -7.484375 L 11.453125 0 L 9.453125 0 L 3.4375 -7.03125 L 3.4375 0 L 1.921875 0 Z M 1.921875 -14.359375 "/></g></g></g><g fill="#ffffff" fill-opacity="1"><g transform="translate(193.75903, 127.796744)"><g><path d="M 1.921875 -14.359375 L 3.4375 -14.359375 L 3.4375 -7.765625 L 9.296875 -14.359375 L 11.171875 -14.359375 L 5.03125 -7.484375 L 11.453125 0 L 9.453125 0 L 3.4375 -7.03125 L 3.4375 0 L 1.921875 0 Z M 1.921875 -14.359375 "/></g></g></g><g fill="#ffffff" fill-opacity="1"><g transform="translate(207.031274, 127.796744)"><g><path d="M 6.109375 -14.796875 L 6.53125 -14.796875 L 12 0 L 10.359375 0 L 9 -3.765625 L 3.5625 -3.765625 L 2.203125 0 L 0.640625 0 Z M 8.515625 -5.171875 L 6.28125 -11.390625 L 4.046875 -5.171875 Z M 8.515625 -5.171875 "/></g></g></g><g fill="#ffffff" fill-opacity="1"><g transform="translate(221.396942, 127.796744)"><g><path d="M 1.921875 -14.359375 L 5.140625 -14.359375 C 5.796875 -14.359375 6.398438 -14.265625 6.953125 -14.078125 C 7.515625 -13.898438 7.992188 -13.640625 8.390625 -13.296875 C 8.796875 -12.960938 9.113281 -12.566406 9.34375 -12.109375 C 9.570312 -11.648438 9.6875 -11.148438 9.6875 -10.609375 C 9.6875 -9.953125 9.519531 -9.363281 9.1875 -8.84375 C 8.863281 -8.332031 8.398438 -7.914062 7.796875 -7.59375 C 8.628906 -7.289062 9.285156 -6.828125 9.765625 -6.203125 C 10.253906 -5.585938 10.5 -4.863281 10.5 -4.03125 C 10.5 -3.445312 10.378906 -2.910156 10.140625 -2.421875 C 9.898438 -1.929688 9.5625 -1.503906 9.125 -1.140625 C 8.6875 -0.773438 8.160156 -0.492188 7.546875 -0.296875 C 6.941406 -0.0976562 6.285156 0 5.578125 0 L 1.921875 0 Z M 5.578125 -1.390625 C 6.609375 -1.390625 7.4375 -1.632812 8.0625 -2.125 C 8.6875 -2.625 9 -3.285156 9 -4.109375 C 9 -4.929688 8.6875 -5.585938 8.0625 -6.078125 C 7.4375 -6.566406 6.609375 -6.8125 5.578125 -6.8125 L 3.4375 -6.8125 L 3.4375 -1.390625 Z M 5.140625 -8.140625 C 6.066406 -8.140625 6.804688 -8.351562 7.359375 -8.78125 C 7.910156 -9.21875 8.1875 -9.800781 8.1875 -10.53125 C 8.1875 -11.269531 7.90625 -11.859375 7.34375 -12.296875 C 6.789062 -12.742188 6.054688 -12.96875 5.140625 -12.96875 L 3.4375 -12.96875 L 3.4375 -8.140625 Z M 5.140625 -8.140625 "/></g></g></g><g fill="#ffffff" fill-opacity="1"><g transform="translate(234.905025, 127.796744)"><g><path d="M 1.921875 -14.359375 L 3.4375 -14.359375 L 3.4375 0 L 1.921875 0 Z M 1.921875 -14.359375 "/></g></g></g><g fill="#ffffff" fill-opacity="1"><g transform="translate(241.981144, 127.796744)"><g/></g></g><g fill="#ffffff" fill-opacity="1"><g transform="translate(248.414063, 127.796744)"><g><path d="M 1.921875 -14.359375 L 6.625 -14.359375 C 7.726562 -14.359375 8.742188 -14.179688 9.671875 -13.828125 C 10.597656 -13.472656 11.398438 -12.972656 12.078125 -12.328125 C 12.753906 -11.679688 13.285156 -10.914062 13.671875 -10.03125 C 14.054688 -9.15625 14.25 -8.207031 14.25 -7.1875 C 14.25 -6.15625 14.054688 -5.195312 13.671875 -4.3125 C 13.285156 -3.4375 12.753906 -2.679688 12.078125 -2.046875 C 11.398438 -1.410156 10.597656 -0.910156 9.671875 -0.546875 C 8.742188 -0.179688 7.726562 0 6.625 0 L 1.921875 0 Z M 6.609375 -1.390625 C 7.472656 -1.390625 8.273438 -1.53125 9.015625 -1.8125 C 9.765625 -2.101562 10.40625 -2.503906 10.9375 -3.015625 C 11.476562 -3.535156 11.894531 -4.148438 12.1875 -4.859375 C 12.488281 -5.566406 12.640625 -6.34375 12.640625 -7.1875 C 12.640625 -8.03125 12.488281 -8.800781 12.1875 -9.5 C 11.894531 -10.207031 11.476562 -10.816406 10.9375 -11.328125 C 10.40625 -11.847656 9.765625 -12.25 9.015625 -12.53125 C 8.273438 -12.820312 7.472656 -12.96875 6.609375 -12.96875 L 3.4375 -12.96875 L 3.4375 -1.390625 Z M 6.609375 -1.390625 "/></g></g></g><g fill="#ffffff" fill-opacity="1"><g transform="translate(265.45971, 127.796744)"><g><path d="M 6.984375 0.21875 C 6.210938 0.21875 5.507812 0.0703125 4.875 -0.21875 C 4.238281 -0.519531 3.695312 -0.929688 3.25 -1.453125 C 2.800781 -1.984375 2.453125 -2.617188 2.203125 -3.359375 C 1.953125 -4.109375 1.828125 -4.929688 1.828125 -5.828125 L 1.828125 -14.359375 L 3.328125 -14.359375 L 3.328125 -5.953125 C 3.328125 -5.242188 3.414062 -4.59375 3.59375 -4 C 3.769531 -3.40625 4.019531 -2.898438 4.34375 -2.484375 C 4.675781 -2.066406 5.070312 -1.742188 5.53125 -1.515625 C 6 -1.285156 6.519531 -1.171875 7.09375 -1.171875 C 7.664062 -1.171875 8.179688 -1.285156 8.640625 -1.515625 C 9.109375 -1.742188 9.503906 -2.066406 9.828125 -2.484375 C 10.160156 -2.898438 10.414062 -3.40625 10.59375 -4 C 10.78125 -4.59375 10.875 -5.242188 10.875 -5.953125 L 10.875 -14.359375 L 12.328125 -14.359375 L 12.328125 -5.828125 C 12.328125 -4.929688 12.191406 -4.109375 11.921875 -3.359375 C 11.660156 -2.617188 11.296875 -1.984375 10.828125 -1.453125 C 10.359375 -0.929688 9.789062 -0.519531 9.125 -0.21875 C 8.46875 0.0703125 7.753906 0.21875 6.984375 0.21875 Z M 5.078125 -16.375 C 4.796875 -16.375 4.554688 -16.472656 4.359375 -16.671875 C 4.171875 -16.878906 4.078125 -17.125 4.078125 -17.40625 C 4.078125 -17.6875 4.175781 -17.925781 4.375 -18.125 C 4.570312 -18.332031 4.816406 -18.4375 5.109375 -18.4375 C 5.390625 -18.4375 5.625 -18.332031 5.8125 -18.125 C 6.007812 -17.925781 6.109375 -17.6875 6.109375 -17.40625 C 6.109375 -17.125 6.007812 -16.878906 5.8125 -16.671875 C 5.613281 -16.472656 5.367188 -16.375 5.078125 -16.375 Z M 9.046875 -16.375 C 8.765625 -16.375 8.523438 -16.472656 8.328125 -16.671875 C 8.140625 -16.878906 8.046875 -17.125 8.046875 -17.40625 C 8.046875 -17.6875 8.144531 -17.925781 8.34375 -18.125 C 8.539062 -18.332031 8.78125 -18.4375 9.0625 -18.4375 C 9.351562 -18.4375 9.59375 -18.332031 9.78125 -18.125 C 9.976562 -17.925781 10.078125 -17.6875 10.078125 -17.40625 C 10.078125 -17.125 9.972656 -16.878906 9.765625 -16.671875 C 9.566406 -16.472656 9.328125 -16.375 9.046875 -16.375 Z M 9.046875 -16.375 "/></g></g></g><g fill="#ffffff" fill-opacity="1"><g transform="translate(281.326166, 127.796744)"><g><path d="M 3.390625 -11.171875 L 3.390625 0 L 1.921875 0 L 1.921875 -14.796875 L 2.359375 -14.796875 L 12.046875 -3.1875 L 12.046875 -14.359375 L 13.5 -14.359375 L 13.5 0.421875 L 13.078125 0.421875 Z M 3.390625 -11.171875 "/></g></g></g><g fill="#ffffff" fill-opacity="1"><g transform="translate(298.479025, 127.796744)"><g><path d="M 4.828125 -5.578125 L 0.421875 -14.359375 L 2.125 -14.359375 L 5.6875 -7.25 L 9.296875 -14.359375 L 10.875 -14.359375 L 6.328125 -5.578125 L 6.328125 0 L 4.828125 0 Z M 4.828125 -5.578125 "/></g></g></g><g fill="#ffffff" fill-opacity="1"><g transform="translate(311.493983, 127.796744)"><g><path d="M 6.109375 -14.796875 L 6.53125 -14.796875 L 12 0 L 10.359375 0 L 9 -3.765625 L 3.5625 -3.765625 L 2.203125 0 L 0.640625 0 Z M 8.515625 -5.171875 L 6.28125 -11.390625 L 4.046875 -5.171875 Z M 8.515625 -5.171875 "/></g></g></g><g fill="#ffffff" fill-opacity="1"><g transform="translate(325.859647, 127.796744)"><g><path d="M 5.375 0.21875 C 4.40625 0.21875 3.507812 -0.0078125 2.6875 -0.46875 C 1.863281 -0.9375 1.179688 -1.609375 0.640625 -2.484375 L 1.796875 -3.4375 C 2.796875 -1.914062 4 -1.15625 5.40625 -1.15625 C 6.25 -1.15625 6.925781 -1.382812 7.4375 -1.84375 C 7.945312 -2.300781 8.203125 -2.910156 8.203125 -3.671875 C 8.203125 -4.328125 7.96875 -4.890625 7.5 -5.359375 C 7.039062 -5.828125 6.300781 -6.269531 5.28125 -6.6875 C 3.976562 -7.1875 3.035156 -7.769531 2.453125 -8.4375 C 1.878906 -9.113281 1.59375 -9.914062 1.59375 -10.84375 C 1.59375 -11.40625 1.679688 -11.914062 1.859375 -12.375 C 2.046875 -12.832031 2.3125 -13.222656 2.65625 -13.546875 C 3 -13.878906 3.410156 -14.132812 3.890625 -14.3125 C 4.367188 -14.488281 4.898438 -14.578125 5.484375 -14.578125 C 7.128906 -14.578125 8.488281 -13.847656 9.5625 -12.390625 L 8.40625 -11.453125 C 7.976562 -12.046875 7.523438 -12.484375 7.046875 -12.765625 C 6.566406 -13.046875 6.039062 -13.1875 5.46875 -13.1875 C 4.738281 -13.1875 4.160156 -12.984375 3.734375 -12.578125 C 3.304688 -12.179688 3.09375 -11.644531 3.09375 -10.96875 C 3.09375 -10.332031 3.304688 -9.785156 3.734375 -9.328125 C 4.171875 -8.878906 4.898438 -8.457031 5.921875 -8.0625 C 7.222656 -7.5625 8.179688 -6.960938 8.796875 -6.265625 C 9.410156 -5.578125 9.71875 -4.753906 9.71875 -3.796875 C 9.71875 -3.210938 9.609375 -2.671875 9.390625 -2.171875 C 9.171875 -1.679688 8.867188 -1.253906 8.484375 -0.890625 C 8.097656 -0.535156 7.640625 -0.257812 7.109375 -0.0625 C 6.585938 0.125 6.007812 0.21875 5.375 0.21875 Z M 5.375 0.21875 "/></g></g></g><g fill="#ffffff" fill-opacity="1"><g transform="translate(338.360044, 127.796744)"><g><path d="M 1.921875 -14.359375 L 3.4375 -14.359375 L 3.4375 0 L 1.921875 0 Z M 1.921875 -14.359375 "/></g></g></g></svg>