<svg xmlns="http://www.w3.org/2000/svg" xmlns:xlink="http://www.w3.org/1999/xlink" width="532" zoomAndPan="magnify" viewBox="0 0 398.88 196.499994" height="262" preserveAspectRatio="xMidYMid meet" version="1.0"><defs><g/><clipPath id="bd0eb6c1bf"><path d="M 25 0.730469 L 85 0.730469 L 85 110 L 25 110 Z M 25 0.730469 " clip-rule="nonzero"/></clipPath></defs><path fill="#ff5757" d="M 29.464844 76.613281 C 29.464844 76.613281 26.945312 91.128906 54.335938 91.429688 C 56.667969 91.453125 58.777344 92.859375 59.667969 95.011719 C 60.367188 96.695312 60.234375 98.585938 59.316406 100.160156 C 57.214844 103.757812 52.675781 110.511719 56.226562 117.238281 C 59.148438 122.769531 65.960938 124.691406 71.53125 123.476562 C 71.53125 123.476562 60.589844 108.097656 73.53125 82.742188 C 86.476562 57.386719 24.472656 57.769531 13.917969 15.558594 C 13.917969 15.558594 1.003906 52.460938 57.285156 70.691406 C 57.285156 70.691406 35.652344 70.972656 17.152344 49.191406 C 17.152344 49.191406 12.53125 72.46875 53.503906 81.1875 C 53.503906 81.1875 39.359375 82.109375 29.464844 76.613281 " fill-opacity="1" fill-rule="nonzero"/><g clip-path="url(#bd0eb6c1bf)"><path fill="#ff5757" d="M 43.390625 47.394531 C 47.316406 49.832031 51.28125 52.003906 55.015625 54.054688 C 69.4375 61.960938 83.0625 69.429688 75.699219 83.847656 C 70.367188 94.292969 69.257812 102.855469 69.703125 109.222656 C 70.5625 102.074219 73.476562 93.078125 80.851562 83.011719 C 99.109375 58.105469 32.644531 47.769531 28.652344 0.738281 C 28.652344 0.738281 27.308594 3.21875 26.289062 7.414062 C 22.519531 22.957031 29.792969 38.96875 43.390625 47.394531 " fill-opacity="1" fill-rule="nonzero"/></g><path fill="#ff5757" d="M 133.847656 170.792969 C 126.960938 157.558594 109.558594 167.886719 102.949219 152.011719 C 102.738281 151.503906 102.535156 150.984375 102.339844 150.453125 C 102.105469 149.820312 101.464844 149.4375 100.796875 149.523438 L 95.574219 150.183594 C 94.519531 150.316406 93.464844 149.679688 93.230469 148.644531 C 92.960938 147.453125 93.773438 146.320312 94.953125 146.171875 L 98.972656 145.660156 C 99.851562 145.550781 100.433594 144.683594 100.195312 143.832031 C 100.160156 143.726562 100.132812 143.617188 100.101562 143.507812 C 99.90625 142.8125 99.238281 142.355469 98.519531 142.449219 L 92.847656 143.164062 C 91.792969 143.300781 90.738281 142.664062 90.503906 141.625 C 90.230469 140.4375 91.046875 139.304688 92.226562 139.15625 L 97.148438 138.53125 C 98.007812 138.421875 98.582031 137.59375 98.378906 136.75 C 98.375 136.742188 98.375 136.730469 98.371094 136.722656 C 98.199219 136 97.511719 135.523438 96.777344 135.617188 L 90.257812 136.441406 C 89.203125 136.574219 88.152344 135.9375 87.914062 134.902344 C 87.640625 133.710938 88.457031 132.578125 89.632812 132.429688 L 95.527344 131.683594 C 96.386719 131.574219 96.960938 130.746094 96.761719 129.902344 C 96.726562 129.757812 96.691406 129.617188 96.65625 129.46875 C 96.484375 128.75 95.796875 128.277344 95.0625 128.371094 L 87.117188 129.375 C 86.0625 129.507812 85.007812 128.871094 84.769531 127.839844 C 84.5 126.652344 85.3125 125.515625 86.492188 125.367188 L 93.652344 124.460938 C 94.539062 124.347656 95.113281 123.464844 94.863281 122.601562 C 93.480469 117.824219 91.871094 113.691406 89.667969 110.957031 C 87.804688 108.640625 84.53125 108.078125 81.960938 109.5625 C 79.148438 111.183594 74.675781 113.246094 70.222656 113.195312 C 71.273438 118.6875 73.324219 121.789062 73.519531 122.070312 L 75.652344 125.070312 L 72.050781 125.855469 C 71.871094 125.894531 71.683594 125.917969 71.5 125.949219 C 71.183594 126.007812 70.867188 126.070312 70.539062 126.113281 C 70.058594 126.171875 69.554688 126.183594 69.054688 126.207031 C 69.058594 126.207031 69.058594 126.207031 69.066406 126.207031 C 63.523438 126.460938 57.203125 124.296875 54.074219 118.375 C 50.113281 110.878906 54.453125 103.578125 56.785156 99.65625 L 57.113281 99.101562 C 56.746094 97.617188 55.824219 96.316406 54.554688 95.453125 C 52.316406 93.925781 49.351562 93.960938 47.179688 95.585938 C 42.058594 99.414062 33.4375 106.769531 33.148438 113.089844 C 39.5625 125.0625 51.703125 127.621094 68.761719 153.269531 C 87.699219 181.742188 118.792969 180.261719 118.792969 180.261719 C 78.699219 188.199219 66.742188 150.253906 49.339844 137.121094 C 37.410156 128.121094 32.789062 119.929688 31.058594 115.660156 C 28.09375 119.039062 24.441406 126.984375 39.328125 138.796875 C 59.554688 154.84375 66.953125 180.179688 88.472656 187.882812 C 109.996094 195.585938 140.734375 184.03125 133.847656 170.792969 " fill-opacity="1" fill-rule="nonzero"/><g fill="#ff5757" fill-opacity="1"><g transform="translate(164.371513, 126.12993)"><g><path d="M 40.8125 0 L 34 0 L 34.875 -11.359375 L 35.34375 -26.078125 L 34.8125 -26.078125 L 23.921875 -3.953125 L 17.9375 -3.953125 L 13.28125 -26.078125 L 12.6875 -26.078125 L 9.609375 -12.046875 L 7.328125 0 L 0.875 0 L 9.25 -37.4375 L 18.046875 -37.4375 L 18.859375 -31.90625 L 22.359375 -13.921875 L 22.875 -13.921875 L 31.203125 -31.96875 L 33.46875 -37.4375 L 42.203125 -37.4375 Z M 40.8125 0 "/></g></g></g><g fill="#ff5757" fill-opacity="1"><g transform="translate(209.545987, 126.12993)"><g><path d="M 21.484375 -37.953125 C 26.097656 -37.953125 29.675781 -36.625 32.21875 -33.96875 C 34.757812 -31.3125 36.03125 -27.441406 36.03125 -22.359375 C 36.03125 -17.773438 35.273438 -13.753906 33.765625 -10.296875 C 32.253906 -6.847656 30.039062 -4.171875 27.125 -2.265625 C 24.21875 -0.367188 20.726562 0.578125 16.65625 0.578125 C 12.070312 0.578125 8.507812 -0.785156 5.96875 -3.515625 C 3.425781 -6.253906 2.15625 -10.1875 2.15625 -15.3125 C 2.15625 -19.894531 2.898438 -23.890625 4.390625 -27.296875 C 5.890625 -30.710938 8.082031 -33.34375 10.96875 -35.1875 C 13.863281 -37.03125 17.367188 -37.953125 21.484375 -37.953125 Z M 20.546875 -31.734375 C 17.054688 -31.734375 14.445312 -30.441406 12.71875 -27.859375 C 10.988281 -25.273438 10.125 -21.148438 10.125 -15.484375 C 10.125 -11.953125 10.695312 -9.378906 11.84375 -7.765625 C 12.988281 -6.160156 14.84375 -5.359375 17.40625 -5.359375 C 20.894531 -5.359375 23.515625 -6.65625 25.265625 -9.25 C 27.015625 -11.851562 27.890625 -16.007812 27.890625 -21.71875 C 27.890625 -25.25 27.316406 -27.800781 26.171875 -29.375 C 25.023438 -30.945312 23.148438 -31.734375 20.546875 -31.734375 Z M 20.546875 -31.734375 "/></g></g></g><g fill="#ff5757" fill-opacity="1"><g transform="translate(246.279353, 126.12993)"><g><path d="M 21.71875 -37.671875 C 26.445312 -37.671875 30.101562 -36.398438 32.6875 -33.859375 C 35.269531 -31.316406 36.5625 -27.710938 36.5625 -23.046875 C 36.5625 -15.710938 34.773438 -9.96875 31.203125 -5.8125 C 27.628906 -1.664062 22.546875 0.40625 15.953125 0.40625 C 14.128906 0.40625 11.9375 0.363281 9.375 0.28125 C 6.8125 0.207031 4.640625 0.113281 2.859375 0 L 4.65625 -11.171875 L 7.515625 -37.4375 Z M 17.640625 -5.53125 C 21.097656 -5.53125 23.765625 -6.878906 25.640625 -9.578125 C 27.523438 -12.273438 28.46875 -16.359375 28.46875 -21.828125 C 28.46875 -25.171875 27.835938 -27.625 26.578125 -29.1875 C 25.316406 -30.757812 23.382812 -31.546875 20.78125 -31.546875 C 19.269531 -31.546875 17.15625 -31.472656 14.4375 -31.328125 L 11.640625 -11.875 L 11.125 -6 C 12.164062 -5.882812 13.316406 -5.773438 14.578125 -5.671875 C 15.835938 -5.578125 16.859375 -5.53125 17.640625 -5.53125 Z M 17.640625 -5.53125 "/></g></g></g><g fill="#ff5757" fill-opacity="1"><g transform="translate(283.594861, 126.12993)"><g><path d="M 31.375 0 L 23.640625 0 L 23.28125 -4.828125 L 22.765625 -8.5 L 15.71875 -8.609375 L 9.484375 -8.5 L 8.09375 -5.234375 L 6.40625 0 L -1.171875 0 L 15.78125 -37.4375 L 24.921875 -37.4375 Z M 21.890625 -14.4375 L 19.5625 -30.21875 L 19.03125 -30.21875 L 12.171875 -14.5 L 16.9375 -14.375 Z M 21.890625 -14.4375 "/></g></g></g><g fill="#ff5757" fill-opacity="1"><g transform="translate(143.424142, 168.942038)"><g><path d="M 6.109375 -14.796875 L 6.53125 -14.796875 L 12 0 L 10.359375 0 L 9 -3.765625 L 3.5625 -3.765625 L 2.203125 0 L 0.640625 0 Z M 8.515625 -5.171875 L 6.28125 -11.390625 L 4.046875 -5.171875 Z M 8.515625 -5.171875 "/></g></g></g><g fill="#ff5757" fill-opacity="1"><g transform="translate(157.78981, 168.942038)"><g><path d="M 4.828125 -5.578125 L 0.421875 -14.359375 L 2.125 -14.359375 L 5.6875 -7.25 L 9.296875 -14.359375 L 10.875 -14.359375 L 6.328125 -5.578125 L 6.328125 0 L 4.828125 0 Z M 4.828125 -5.578125 "/></g></g></g><g fill="#ff5757" fill-opacity="1"><g transform="translate(170.804773, 168.942038)"><g><path d="M 6.109375 -14.796875 L 6.53125 -14.796875 L 12 0 L 10.359375 0 L 9 -3.765625 L 3.5625 -3.765625 L 2.203125 0 L 0.640625 0 Z M 8.515625 -5.171875 L 6.28125 -11.390625 L 4.046875 -5.171875 Z M 8.515625 -5.171875 "/></g></g></g><g fill="#ff5757" fill-opacity="1"><g transform="translate(185.170442, 168.942038)"><g><path d="M 1.921875 -14.359375 L 3.4375 -14.359375 L 3.4375 -7.765625 L 9.296875 -14.359375 L 11.171875 -14.359375 L 5.03125 -7.484375 L 11.453125 0 L 9.453125 0 L 3.4375 -7.03125 L 3.4375 0 L 1.921875 0 Z M 1.921875 -14.359375 "/></g></g></g><g fill="#ff5757" fill-opacity="1"><g transform="translate(198.442685, 168.942038)"><g><path d="M 1.921875 -14.359375 L 3.4375 -14.359375 L 3.4375 -7.765625 L 9.296875 -14.359375 L 11.171875 -14.359375 L 5.03125 -7.484375 L 11.453125 0 L 9.453125 0 L 3.4375 -7.03125 L 3.4375 0 L 1.921875 0 Z M 1.921875 -14.359375 "/></g></g></g><g fill="#ff5757" fill-opacity="1"><g transform="translate(211.714928, 168.942038)"><g><path d="M 6.109375 -14.796875 L 6.53125 -14.796875 L 12 0 L 10.359375 0 L 9 -3.765625 L 3.5625 -3.765625 L 2.203125 0 L 0.640625 0 Z M 8.515625 -5.171875 L 6.28125 -11.390625 L 4.046875 -5.171875 Z M 8.515625 -5.171875 "/></g></g></g><g fill="#ff5757" fill-opacity="1"><g transform="translate(226.080597, 168.942038)"><g><path d="M 1.921875 -14.359375 L 5.140625 -14.359375 C 5.796875 -14.359375 6.398438 -14.265625 6.953125 -14.078125 C 7.515625 -13.898438 7.992188 -13.640625 8.390625 -13.296875 C 8.796875 -12.960938 9.113281 -12.566406 9.34375 -12.109375 C 9.570312 -11.648438 9.6875 -11.148438 9.6875 -10.609375 C 9.6875 -9.953125 9.519531 -9.363281 9.1875 -8.84375 C 8.863281 -8.332031 8.398438 -7.914062 7.796875 -7.59375 C 8.628906 -7.289062 9.285156 -6.828125 9.765625 -6.203125 C 10.253906 -5.585938 10.5 -4.863281 10.5 -4.03125 C 10.5 -3.445312 10.378906 -2.910156 10.140625 -2.421875 C 9.898438 -1.929688 9.5625 -1.503906 9.125 -1.140625 C 8.6875 -0.773438 8.160156 -0.492188 7.546875 -0.296875 C 6.941406 -0.0976562 6.285156 0 5.578125 0 L 1.921875 0 Z M 5.578125 -1.390625 C 6.609375 -1.390625 7.4375 -1.632812 8.0625 -2.125 C 8.6875 -2.625 9 -3.285156 9 -4.109375 C 9 -4.929688 8.6875 -5.585938 8.0625 -6.078125 C 7.4375 -6.566406 6.609375 -6.8125 5.578125 -6.8125 L 3.4375 -6.8125 L 3.4375 -1.390625 Z M 5.140625 -8.140625 C 6.066406 -8.140625 6.804688 -8.351562 7.359375 -8.78125 C 7.910156 -9.21875 8.1875 -9.800781 8.1875 -10.53125 C 8.1875 -11.269531 7.90625 -11.859375 7.34375 -12.296875 C 6.789062 -12.742188 6.054688 -12.96875 5.140625 -12.96875 L 3.4375 -12.96875 L 3.4375 -8.140625 Z M 5.140625 -8.140625 "/></g></g></g><g fill="#ff5757" fill-opacity="1"><g transform="translate(239.588679, 168.942038)"><g><path d="M 1.921875 -14.359375 L 3.4375 -14.359375 L 3.4375 0 L 1.921875 0 Z M 1.921875 -14.359375 "/></g></g></g><g fill="#ff5757" fill-opacity="1"><g transform="translate(246.664799, 168.942038)"><g/></g></g><g fill="#ff5757" fill-opacity="1"><g transform="translate(253.097717, 168.942038)"><g><path d="M 1.921875 -14.359375 L 6.625 -14.359375 C 7.726562 -14.359375 8.742188 -14.179688 9.671875 -13.828125 C 10.597656 -13.472656 11.398438 -12.972656 12.078125 -12.328125 C 12.753906 -11.679688 13.285156 -10.914062 13.671875 -10.03125 C 14.054688 -9.15625 14.25 -8.207031 14.25 -7.1875 C 14.25 -6.15625 14.054688 -5.195312 13.671875 -4.3125 C 13.285156 -3.4375 12.753906 -2.679688 12.078125 -2.046875 C 11.398438 -1.410156 10.597656 -0.910156 9.671875 -0.546875 C 8.742188 -0.179688 7.726562 0 6.625 0 L 1.921875 0 Z M 6.609375 -1.390625 C 7.472656 -1.390625 8.273438 -1.53125 9.015625 -1.8125 C 9.765625 -2.101562 10.40625 -2.503906 10.9375 -3.015625 C 11.476562 -3.535156 11.894531 -4.148438 12.1875 -4.859375 C 12.488281 -5.566406 12.640625 -6.34375 12.640625 -7.1875 C 12.640625 -8.03125 12.488281 -8.800781 12.1875 -9.5 C 11.894531 -10.207031 11.476562 -10.816406 10.9375 -11.328125 C 10.40625 -11.847656 9.765625 -12.25 9.015625 -12.53125 C 8.273438 -12.820312 7.472656 -12.96875 6.609375 -12.96875 L 3.4375 -12.96875 L 3.4375 -1.390625 Z M 6.609375 -1.390625 "/></g></g></g><g fill="#ff5757" fill-opacity="1"><g transform="translate(270.143364, 168.942038)"><g><path d="M 6.984375 0.21875 C 6.210938 0.21875 5.507812 0.0703125 4.875 -0.21875 C 4.238281 -0.519531 3.695312 -0.929688 3.25 -1.453125 C 2.800781 -1.984375 2.453125 -2.617188 2.203125 -3.359375 C 1.953125 -4.109375 1.828125 -4.929688 1.828125 -5.828125 L 1.828125 -14.359375 L 3.328125 -14.359375 L 3.328125 -5.953125 C 3.328125 -5.242188 3.414062 -4.59375 3.59375 -4 C 3.769531 -3.40625 4.019531 -2.898438 4.34375 -2.484375 C 4.675781 -2.066406 5.070312 -1.742188 5.53125 -1.515625 C 6 -1.285156 6.519531 -1.171875 7.09375 -1.171875 C 7.664062 -1.171875 8.179688 -1.285156 8.640625 -1.515625 C 9.109375 -1.742188 9.503906 -2.066406 9.828125 -2.484375 C 10.160156 -2.898438 10.414062 -3.40625 10.59375 -4 C 10.78125 -4.59375 10.875 -5.242188 10.875 -5.953125 L 10.875 -14.359375 L 12.328125 -14.359375 L 12.328125 -5.828125 C 12.328125 -4.929688 12.191406 -4.109375 11.921875 -3.359375 C 11.660156 -2.617188 11.296875 -1.984375 10.828125 -1.453125 C 10.359375 -0.929688 9.789062 -0.519531 9.125 -0.21875 C 8.46875 0.0703125 7.753906 0.21875 6.984375 0.21875 Z M 5.078125 -16.375 C 4.796875 -16.375 4.554688 -16.472656 4.359375 -16.671875 C 4.171875 -16.878906 4.078125 -17.125 4.078125 -17.40625 C 4.078125 -17.6875 4.175781 -17.925781 4.375 -18.125 C 4.570312 -18.332031 4.816406 -18.4375 5.109375 -18.4375 C 5.390625 -18.4375 5.625 -18.332031 5.8125 -18.125 C 6.007812 -17.925781 6.109375 -17.6875 6.109375 -17.40625 C 6.109375 -17.125 6.007812 -16.878906 5.8125 -16.671875 C 5.613281 -16.472656 5.367188 -16.375 5.078125 -16.375 Z M 9.046875 -16.375 C 8.765625 -16.375 8.523438 -16.472656 8.328125 -16.671875 C 8.140625 -16.878906 8.046875 -17.125 8.046875 -17.40625 C 8.046875 -17.6875 8.144531 -17.925781 8.34375 -18.125 C 8.539062 -18.332031 8.78125 -18.4375 9.0625 -18.4375 C 9.351562 -18.4375 9.59375 -18.332031 9.78125 -18.125 C 9.976562 -17.925781 10.078125 -17.6875 10.078125 -17.40625 C 10.078125 -17.125 9.972656 -16.878906 9.765625 -16.671875 C 9.566406 -16.472656 9.328125 -16.375 9.046875 -16.375 Z M 9.046875 -16.375 "/></g></g></g><g fill="#ff5757" fill-opacity="1"><g transform="translate(286.00982, 168.942038)"><g><path d="M 3.390625 -11.171875 L 3.390625 0 L 1.921875 0 L 1.921875 -14.796875 L 2.359375 -14.796875 L 12.046875 -3.1875 L 12.046875 -14.359375 L 13.5 -14.359375 L 13.5 0.421875 L 13.078125 0.421875 Z M 3.390625 -11.171875 "/></g></g></g><g fill="#ff5757" fill-opacity="1"><g transform="translate(303.162679, 168.942038)"><g><path d="M 4.828125 -5.578125 L 0.421875 -14.359375 L 2.125 -14.359375 L 5.6875 -7.25 L 9.296875 -14.359375 L 10.875 -14.359375 L 6.328125 -5.578125 L 6.328125 0 L 4.828125 0 Z M 4.828125 -5.578125 "/></g></g></g><g fill="#ff5757" fill-opacity="1"><g transform="translate(316.177638, 168.942038)"><g><path d="M 6.109375 -14.796875 L 6.53125 -14.796875 L 12 0 L 10.359375 0 L 9 -3.765625 L 3.5625 -3.765625 L 2.203125 0 L 0.640625 0 Z M 8.515625 -5.171875 L 6.28125 -11.390625 L 4.046875 -5.171875 Z M 8.515625 -5.171875 "/></g></g></g><g fill="#ff5757" fill-opacity="1"><g transform="translate(330.543302, 168.942038)"><g><path d="M 5.375 0.21875 C 4.40625 0.21875 3.507812 -0.0078125 2.6875 -0.46875 C 1.863281 -0.9375 1.179688 -1.609375 0.640625 -2.484375 L 1.796875 -3.4375 C 2.796875 -1.914062 4 -1.15625 5.40625 -1.15625 C 6.25 -1.15625 6.925781 -1.382812 7.4375 -1.84375 C 7.945312 -2.300781 8.203125 -2.910156 8.203125 -3.671875 C 8.203125 -4.328125 7.96875 -4.890625 7.5 -5.359375 C 7.039062 -5.828125 6.300781 -6.269531 5.28125 -6.6875 C 3.976562 -7.1875 3.035156 -7.769531 2.453125 -8.4375 C 1.878906 -9.113281 1.59375 -9.914062 1.59375 -10.84375 C 1.59375 -11.40625 1.679688 -11.914062 1.859375 -12.375 C 2.046875 -12.832031 2.3125 -13.222656 2.65625 -13.546875 C 3 -13.878906 3.410156 -14.132812 3.890625 -14.3125 C 4.367188 -14.488281 4.898438 -14.578125 5.484375 -14.578125 C 7.128906 -14.578125 8.488281 -13.847656 9.5625 -12.390625 L 8.40625 -11.453125 C 7.976562 -12.046875 7.523438 -12.484375 7.046875 -12.765625 C 6.566406 -13.046875 6.039062 -13.1875 5.46875 -13.1875 C 4.738281 -13.1875 4.160156 -12.984375 3.734375 -12.578125 C 3.304688 -12.179688 3.09375 -11.644531 3.09375 -10.96875 C 3.09375 -10.332031 3.304688 -9.785156 3.734375 -9.328125 C 4.171875 -8.878906 4.898438 -8.457031 5.921875 -8.0625 C 7.222656 -7.5625 8.179688 -6.960938 8.796875 -6.265625 C 9.410156 -5.578125 9.71875 -4.753906 9.71875 -3.796875 C 9.71875 -3.210938 9.609375 -2.671875 9.390625 -2.171875 C 9.171875 -1.679688 8.867188 -1.253906 8.484375 -0.890625 C 8.097656 -0.535156 7.640625 -0.257812 7.109375 -0.0625 C 6.585938 0.125 6.007812 0.21875 5.375 0.21875 Z M 5.375 0.21875 "/></g></g></g><g fill="#ff5757" fill-opacity="1"><g transform="translate(343.043699, 168.942038)"><g><path d="M 1.921875 -14.359375 L 3.4375 -14.359375 L 3.4375 0 L 1.921875 0 Z M 1.921875 -14.359375 "/></g></g></g></svg>